#!OML:ASF I:\Actors\actors\Patient Classification 2\Patient 1\Session 1\actor1.ASF
:FULLY-SPECIFIED
:DEGREES
594
root -1.23755 18.3273 4.63666 -4.46542 -1.08779 -4.58253
lowerback 24.2436 1.33722 0.0479164
upperback 4.12549 1.86117 1.14117
thorax -8.98319 0.894051 0.649825
lowerneck -17.9988 -5.89925 -6.52984
upperneck 14.9806 -7.82684 7.76396
head 8.17751 -3.33316 2.67689
rclavicle 1.72943e-014 6.36111e-015
rhumerus -47.1716 -1.24273 -67.9665
rradius 125.383
rwrist 7.05541
rhand -3.64914 -46.0324
rfingers 7.12502
rthumb 22.0909 -74.7905
lclavicle 1.72943e-014 6.36111e-015
lhumerus -35.5178 -15.4478 82.3682
lradius 123.79
lwrist 3.42074
lhand -0.205997 -25.4135
lfingers 7.12502
lthumb 25.393 2.91547
rfemur 0.583144 -2.1631 19.8786
rtibia 17.6417
rfoot -19.294 -5.58096
rtoes -17.172
lfemur -9.56722 1.55062 -6.90174
ltibia 33.7722
lfoot -19.9665 4.84431
ltoes -57.3934
595
root -1.23769 18.3189 4.6593 -4.83741 -1.13312 -4.52533
lowerback 24.0651 1.25833 0.0667612
upperback 4.1049 1.76396 1.14834
thorax -8.91102 0.848175 0.680121
lowerneck -18.198 -5.82338 -6.3567
upperneck 15.1107 -7.71926 7.52576
head 8.22959 -3.28901 2.57982
rclavicle -1.77912e-014 9.54166e-015
rhumerus -47.1036 -1.30207 -67.7302
rradius 125.815
rwrist 6.53891
rhand -4.68233 -44.081
rfingers 7.12502
rthumb 21.0986 -72.9531
lclavicle -1.77912e-014 9.54166e-015
lhumerus -35.3952 -15.4363 82.1527
lradius 123.949
lwrist 3.43554
lhand -0.10227 -25.3542
lfingers 7.12502
lthumb 25.4924 2.96063
rfemur 1.0611 -2.0506 19.8151
rtibia 17.6987
rfoot -19.4853 -5.48695
rtoes -16.8208
lfemur -9.0156 1.55611 -6.94444
ltibia 33.6853
lfoot -20.072 4.82244
ltoes -57.4529
596
root -1.24662 18.3129 4.69329 -5.15837 -0.734535 -4.50001
lowerback 23.7212 1.05367 0.0538155
upperback 4.07438 1.49813 1.18014
thorax -8.76205 0.724366 0.809298
lowerneck -18.3292 -5.75698 -6.24495
upperneck 15.2362 -7.63681 7.41113
head 8.27877 -3.25001 2.53206
rclavicle -1.09332e-014 7.95139e-015
rhumerus -47.1062 -1.63216 -67.2376
rradius 126.395
rwrist 7.06783
rhand -3.30433 -45.3468
rfingers 7.12502
rthumb 22.4219 -74.0654
lclavicle -1.09332e-014 7.95139e-015
lhumerus -35.2593 -15.4073 81.8679
lradius 124.066
lwrist 3.40349
lhand -0.0486702 -25.3618
lfingers 7.12502
lthumb 25.5438 2.9456
rfemur 1.62684 -2.16667 19.8173
rtibia 17.6852
rfoot -19.8573 -5.57462
rtoes -16.7658
lfemur -8.5938 1.33009 -6.93388
ltibia 33.572
lfoot -20.1041 4.59177
ltoes -57.4928
597
root -1.26301 18.3077 4.73091 -5.43295 -0.265495 -4.46699
lowerback 23.3192 0.870393 -0.0990678
upperback 4.02861 1.2298 1.25612
thorax -8.60224 0.603501 1.06593
lowerneck -18.3823 -5.66552 -6.2322
upperneck 15.2773 -7.50212 7.34827
head 8.28864 -3.19021 2.52631
rclavicle 2.50469e-014 1.19271e-014
rhumerus -47.1345 -1.86046 -66.7867
rradius 126.951
rwrist 7.23103
rhand -2.74881 -45.684
rfingers 7.12502
rthumb 22.955 -74.3373
lclavicle 2.50469e-014 1.19271e-014
lhumerus -35.18 -15.3286 81.5654
lradius 124.246
lwrist 3.44709
lhand 0.11102 -25.3155
lfingers 7.12502
lthumb 25.6967 2.96989
rfemur 2.18675 -2.23601 19.8562
rtibia 17.633
rfoot -20.3012 -5.76828
rtoes -16.5931
lfemur -8.22427 1.15261 -6.89854
ltibia 33.4595
lfoot -20.1103 4.26133
ltoes -57.534
598
root -1.26963 18.3026 4.76225 -5.66068 -0.118968 -4.45165
lowerback 22.9882 0.788356 -0.190628
upperback 3.95601 1.10869 1.33549
thorax -8.50922 0.550196 1.24402
lowerneck -18.4333 -5.58729 -6.17719
upperneck 15.3164 -7.37315 7.16863
head 8.29119 -3.14245 2.47363
rclavicle -1.63997e-015 1.78906e-015
rhumerus -47.112 -2.01658 -66.3188
rradius 127.466
rwrist 7.18155
rhand -2.48703 -45.5956
rfingers 7.12502
rthumb 23.2062 -74.2176
lclavicle -1.63997e-015 1.78906e-015
lhumerus -35.1174 -15.2027 81.2907
lradius 124.483
lwrist 3.54867
lhand 0.387428 -25.1563
lfingers 7.12502
lthumb 25.9614 3.09063
rfemur 2.59695 -2.24203 19.8672
rtibia 17.6031
rfoot -20.5029 -5.83129
rtoes -16.7069
lfemur -7.84985 1.04643 -6.89108
ltibia 33.3718
lfoot -20.201 4.17101
ltoes -57.5476
599
root -1.26558 18.2969 4.79276 -5.84034 -0.18821 -4.45662
lowerback 22.6433 0.762826 -0.13748
upperback 3.87255 1.09109 1.36878
thorax -8.41887 0.54129 1.25721
lowerneck -18.4727 -5.53706 -6.08417
upperneck 15.3668 -7.28986 6.96694
head 8.29673 -3.11641 2.40135
rclavicle 5.31749e-015 -1.07344e-014
rhumerus -47.0873 -2.18804 -65.8449
rradius 127.959
rwrist 7.07545
rhand -2.14692 -45.5955
rfingers 7.12502
rthumb 23.5325 -74.1759
lclavicle 5.31749e-015 -1.07344e-014
lhumerus -35.0619 -15.1262 80.9954
lradius 124.698
lwrist 3.59498
lhand 0.463404 -25.0794
lfingers 7.12502
lthumb 26.0342 3.15682
rfemur 2.88295 -2.21866 19.8526
rtibia 17.6267
rfoot -20.5722 -5.78881
rtoes -17.2379
lfemur -7.50199 0.975824 -6.90872
ltibia 33.3266
lfoot -20.3574 4.24452
ltoes -57.5334
600
root -1.26166 18.2891 4.82359 -6.01716 -0.215141 -4.42872
lowerback 22.3016 0.746393 -0.110244
upperback 3.80358 1.07656 1.37959
thorax -8.31374 0.534216 1.25956
lowerneck -18.5629 -5.49695 -6.03562
upperneck 15.4602 -7.22411 6.84285
head 8.3321 -3.09183 2.35905
rclavicle -5.91384e-015 -3.97569e-015
rhumerus -47.0728 -2.36417 -65.4056
rradius 128.456
rwrist 6.90115
rhand -2.16098 -45.6077
rfingers 7.12502
rthumb 23.519 -74.1899
lclavicle -5.91384e-015 -3.97569e-015
lhumerus -35.0341 -15.0746 80.6489
lradius 124.909
lwrist 3.62983
lhand 0.389844 -25.1299
lfingers 7.12502
lthumb 25.9637 3.11671
rfemur 3.16058 -2.20016 19.8018
rtibia 17.6854
rfoot -20.7215 -5.70289
rtoes -17.3673
lfemur -7.19907 0.937395 -6.9569
ltibia 33.333
lfoot -20.4999 4.25632
ltoes -57.5323
601
root -1.25965 18.2809 4.85306 -6.19783 -0.159681 -4.41626
lowerback 22.0182 0.720459 -0.0841777
upperback 3.76534 1.05031 1.4027
thorax -8.20511 0.5216 1.27895
lowerneck -18.8099 -5.4672 -5.97905
upperneck 15.5658 -7.16913 6.72926
head 8.3999 -3.06719 2.3147
rclavicle -5.56597e-015 3.57812e-015
rhumerus -46.9908 -2.54468 -64.9988
rradius 128.972
rwrist 6.68007
rhand -2.36475 -45.5965
rfingers 7.12502
rthumb 23.3235 -74.2036
lclavicle -5.56597e-015 3.57812e-015
lhumerus -34.9351 -14.9737 80.2809
lradius 125.11
lwrist 3.62527
lhand 0.400562 -25.1754
lfingers 7.12502
lthumb 25.974 3.06962
rfemur 3.43305 -2.23933 19.7673
rtibia 17.7758
rfoot -20.919 -5.60483
rtoes -17.2521
lfemur -6.94099 0.90308 -6.97166
ltibia 33.3754
lfoot -20.6195 4.13771
ltoes -57.44
602
root -1.25711 18.2738 4.88284 -6.3491 -0.0673604 -4.44306
lowerback 21.7468 0.6865 -0.0583159
upperback 3.73902 1.01646 1.46118
thorax -8.08992 0.505722 1.3389
lowerneck -18.7144 -5.2689 -5.94799
upperneck 15.2403 -6.89452 6.75047
head 8.25476 -2.93982 2.35593
rclavicle -1.62506e-014 5.56597e-015
rhumerus -46.7485 -2.78055 -64.5549
rradius 129.483
rwrist 6.52263
rhand -2.20542 -45.4852
rfingers 7.12502
rthumb 23.4764 -74.0728
lclavicle -1.62506e-014 5.56597e-015
lhumerus -34.778 -14.7841 79.9425
lradius 125.285
lwrist 3.57303
lhand 0.375108 -25.2588
lfingers 7.12502
lthumb 25.9496 2.98983
rfemur 3.66586 -2.32798 19.7688
rtibia 17.8881
rfoot -21.1004 -5.5438
rtoes -17.3758
lfemur -6.73735 0.90519 -6.93577
ltibia 33.4323
lfoot -20.7291 3.95288
ltoes -57.3774
603
root -1.25402 18.2665 4.91338 -6.4833 0.0615169 -4.45497
lowerback 21.4836 0.652669 -0.0925158
upperback 3.67976 0.971057 1.53721
thorax -8.016 0.486293 1.45512
lowerneck -18.4003 -4.98819 -6.03048
upperneck 14.7809 -6.50901 6.91829
head 8.02966 -2.75797 2.48186
rclavicle -2.73329e-015 5.96354e-015
rhumerus -46.4186 -3.04875 -64.0523
rradius 129.946
rwrist 6.48656
rhand -1.8207 -45.2781
rfingers 7.12502
rthumb 23.8454 -73.818
lclavicle -2.73329e-015 5.96354e-015
lhumerus -34.7167 -14.5509 79.6295
lradius 125.51
lwrist 3.53936
lhand 0.282784 -25.3565
lfingers 7.12502
lthumb 25.8612 2.90506
rfemur 3.88348 -2.49806 19.7346
rtibia 17.9977
rfoot -21.2405 -5.47173
rtoes -17.6716
lfemur -6.56217 0.874506 -6.93129
ltibia 33.4999
lfoot -20.8501 3.86482
ltoes -57.4811
604
root -1.25128 18.2595 4.94492 -6.6122 0.157922 -4.47938
lowerback 21.249 0.641517 -0.0741024
upperback 3.58804 0.9652 1.58526
thorax -7.99217 0.484281 1.4994
lowerneck -18.6098 -4.9466 -6.06477
upperneck 14.8905 -6.43106 6.88178
head 8.09675 -2.72086 2.48253
rclavicle 4.96962e-015 -3.57812e-015
rhumerus -46.2318 -3.26904 -63.5154
rradius 130.438
rwrist 6.49356
rhand -1.60248 -45.0892
rfingers 7.12502
rthumb 24.0546 -73.6017
lclavicle 4.96962e-015 -3.57812e-015
lhumerus -34.7648 -14.3801 79.2816
lradius 125.797
lwrist 3.46809
lhand 0.175396 -25.4216
lfingers 7.12502
lthumb 25.7584 2.8549
rfemur 4.0987 -2.62165 19.72
rtibia 18.1012
rfoot -21.3806 -5.40114
rtoes -18.0462
lfemur -6.37424 0.771939 -6.92549
ltibia 33.576
lfoot -20.9881 3.85948
ltoes -57.5607
605
root -1.24882 18.2523 4.97808 -6.70225 0.232076 -4.51362
lowerback 20.9876 0.660052 -0.0287524
upperback 3.48411 1.00245 1.61616
thorax -7.96752 0.502076 1.4978
lowerneck -18.8794 -5.01497 -5.97694
upperneck 15.0512 -6.50046 6.6626
head 8.19055 -2.76291 2.38142
rclavicle 4.62174e-015 -1.98785e-015
rhumerus -46.1648 -3.44376 -62.9048
rradius 131.014
rwrist 6.37814
rhand -1.64481 -45.1345
rfingers 7.12502
rthumb 24.014 -73.6523
lclavicle 4.62174e-015 -1.98785e-015
lhumerus -34.8217 -14.278 78.9276
lradius 126.074
lwrist 3.369
lhand -0.034204 -25.4607
lfingers 7.12502
lthumb 25.5576 2.84475
rfemur 4.28933 -2.62655 19.7468
rtibia 18.19
rfoot -21.5449 -5.41838
rtoes -18.4658
lfemur -6.21787 0.725872 -6.89187
ltibia 33.6545
lfoot -21.0992 3.77627
ltoes -57.5626
606
root -1.24874 18.2445 5.01338 -6.77433 0.345898 -4.53824
lowerback 20.6882 0.687567 -0.0736348
upperback 3.38878 1.03307 1.66953
thorax -7.91447 0.519361 1.57431
lowerneck -18.9232 -5.01919 -5.90108
upperneck 15.0228 -6.48918 6.4923
head 8.17866 -2.76968 2.31264
rclavicle -9.39258e-015 7.55382e-015
rhumerus -46.0312 -3.51389 -62.3048
rradius 131.614
rwrist 5.98596
rhand -2.17043 -44.8365
rfingers 7.12502
rthumb 23.5099 -73.4198
lclavicle -9.39258e-015 7.55382e-015
lhumerus -34.8547 -14.1367 78.5816
lradius 126.346
lwrist 3.34741
lhand -0.229595 -25.4902
lfingers 7.12502
lthumb 25.3704 2.84193
rfemur 4.48342 -2.57949 19.7869
rtibia 18.2525
rfoot -21.7648 -5.47908
rtoes -18.4623
lfemur -6.0929 0.752096 -6.84216
ltibia 33.7273
lfoot -21.185 3.6247
ltoes -57.6335
607
root -1.24949 18.2376 5.04994 -6.85897 0.49155 -4.58563
lowerback 20.417 0.712832 -0.0942539
upperback 3.30026 1.06612 1.72041
thorax -7.86833 0.537149 1.63357
lowerneck -19.059 -5.03395 -5.85729
upperneck 15.1021 -6.49102 6.3528
head 8.22201 -2.77842 2.25627
rclavicle -3.03147e-015 -3.57812e-015
rhumerus -45.8389 -3.48432 -61.8157
rradius 132.188
rwrist 5.37833
rhand -3.14968 -43.6764
rfingers 7.12502
rthumb 22.5703 -72.377
lclavicle -3.03147e-015 -3.57812e-015
lhumerus -34.8846 -13.9772 78.2493
lradius 126.669
lwrist 3.47211
lhand -0.271921 -25.4896
lfingers 7.12502
lthumb 25.3299 2.84836
rfemur 4.70705 -2.6273 19.8284
rtibia 18.2884
rfoot -21.9712 -5.46096
rtoes -18.226
lfemur -5.95539 0.742139 -6.76967
ltibia 33.7887
lfoot -21.2778 3.48978
ltoes -57.7316
608
root -1.24782 18.2318 5.08817 -6.95159 0.663281 -4.61954
lowerback 20.1934 0.748241 -0.0586145
upperback 3.20361 1.12151 1.72989
thorax -7.85511 0.563756 1.60973
lowerneck -19.2291 -5.06604 -5.76696
upperneck 15.1468 -6.52306 6.20004
head 8.25947 -2.79979 2.18319
rclavicle -1.83379e-014 -6.55989e-015
rhumerus -45.5891 -3.68398 -61.1601
rradius 132.764
rwrist 5.27029
rhand -2.71738 -44.9325
rfingers 7.12502
rthumb 22.9852 -73.5821
lclavicle -1.83379e-014 -6.55989e-015
lhumerus -34.9268 -13.8589 77.9501
lradius 127.06
lwrist 3.67042
lhand -0.148854 -25.3907
lfingers 7.12502
lthumb 25.4478 2.93048
rfemur 4.9697 -2.85213 19.8029
rtibia 18.278
rfoot -22.0465 -5.3777
rtoes -18.4531
lfemur -5.79454 0.680562 -6.73168
ltibia 33.8313
lfoot -21.3627 3.36105
ltoes -57.8
